<svg xmlns="http://www.w3.org/2000/svg" width="61.1" height="62.9" viewBox="0 0 16.2 16.6"><g transform="translate(-185 -164.8)"><ellipse cx="193" cy="173.1" fill="#fff" rx="8.1" ry="8.3"/><path fill="#009cf0" d="m192 175.6-.1-.4-.1-.5v-.3l-.1-.4c-.1-.2-.1-.2-.2-.1v1.1c.1.4 0 .5-.1.5-.2 0-.2-.3-.3-1.2 0-1-.2-1.9-.4-1.9s-.3-.2-.4-.4l-.4-1.3-.6-.3-.1.4.1.5c.2.4.3.8.4 1.9a16.9 16.9 0 0 0 .5 2.2v.3h-4.4l-.2-.2c-.3-.2-.3-.3-.3-2.7l.1-2.2.2-.2c.2-.2.3-.2 2.4-.2h2.1V168c0-2.2 0-2.3.2-2.5l.3-.2 2.2-.1a8 8 0 0 1 2.3 0l.4.3v3.5l-.2.5a297 297 0 0 0-1.7 2.3v-.5c0-.6 0-1.3.3-2s.3-1.2.1-1.4h-.5l-.5 1.2-.6 2c-.1.3-.5 0-.5 0 .4 0 .9.2 1.2.5l.9.5.6.5c0 .2-.4.2-1 0-.3-.2-.7-.3-.7-.2l.7 1.3.5.8c.2.3.2.5 0 .6l-.3-.1c0-.2-.3-.5-.5-.8-.4-.5-.6-.7-.6-.4l.2.7.1.3.2.5-.1.5c-.2 0-.3-.1-.4-.3 0 0 0-.5-.2-.8-.2-.7-.2-.9-.3-.8-.1 0-.1.1 0 .4l.2 1.4c-.1.1-.3.1-.4 0z"/><path fill="#ff7f2a" d="M194.6 172.3c0-.2 0-.5.7-1.3l.5-.8h.9l-.4.6-.6.8c-.3.4-.7.7-.9.7h-.2zm-4.2 8.7-.1-.1.3-.7a21 21 0 0 1 1.8-2.8l.4-.2c.4 0 1-.2 1.5-.8.3-.3.7-.7.8-1 .4-.6.7-.8 1.4-1.3l1.8-1.6s.1-.2 0-.4l-.1-.2-.4.2a21 21 0 0 1-2 1.3c-.1 0-.1-.2 0-.4l1.1-1.7.6-.8.2-.3h1.3c1.4 0 1.4 0 1.7.4l.1 2.4-.1 2.3-.3.3H198l-2.4.1v4.9c-.3.4-.2.4-2.8.4h-2.4z"/></g></svg>
